<mxfile host="app.diagrams.net" modified="2023-08-25T02:54:20.332Z" agent="Mozilla/5.0 (X11; Ubuntu; Linux x86_64; rv:109.0) Gecko/20100101 Firefox/116.0" etag="PpWwLTJ7zCMskjn93x82" version="21.6.8" type="github">
  <diagram name="PÃ¡gina-1" id="HObaGmJfU6cW_uGDjIfL">
    <mxGraphModel dx="1434" dy="778" grid="1" gridSize="10" guides="1" tooltips="1" connect="1" arrows="1" fold="1" page="1" pageScale="1" pageWidth="827" pageHeight="1169" math="0" shadow="0">
      <root>
        <mxCell id="0" />
        <mxCell id="1" parent="0" />
        <mxCell id="i-EBkG4W8lG_7rL8BpoN-42" value="" style="rounded=1;whiteSpace=wrap;html=1;strokeColor=#2E73B8;fillColor=none;strokeWidth=3;gradientColor=#FFFFFF;" parent="1" vertex="1">
          <mxGeometry x="91.5" y="120" width="647.5" height="310" as="geometry" />
        </mxCell>
        <mxCell id="i-EBkG4W8lG_7rL8BpoN-4" value="" style="rounded=1;whiteSpace=wrap;html=1;fillColor=none;strokeWidth=3;strokeColor=#4D4D4D;" parent="1" vertex="1">
          <mxGeometry x="49" y="90" width="730" height="420" as="geometry" />
        </mxCell>
        <mxCell id="i-EBkG4W8lG_7rL8BpoN-59" value="" style="rounded=0;whiteSpace=wrap;html=1;strokeColor=#009900;dashed=1;fillColor=none;strokeWidth=2;" parent="1" vertex="1">
          <mxGeometry x="540" y="138.5" width="180" height="241.5" as="geometry" />
        </mxCell>
        <mxCell id="i-EBkG4W8lG_7rL8BpoN-58" value="" style="rounded=0;whiteSpace=wrap;html=1;strokeColor=#6600CC;dashed=1;fillColor=none;strokeWidth=2;" parent="1" vertex="1">
          <mxGeometry x="124" y="140" width="376" height="240" as="geometry" />
        </mxCell>
        <mxCell id="i-EBkG4W8lG_7rL8BpoN-25" value="" style="rounded=1;whiteSpace=wrap;html=1;strokeColor=#FF8000;fillColor=none;strokeWidth=3;" parent="1" vertex="1">
          <mxGeometry x="319" y="585" width="230" height="360" as="geometry" />
        </mxCell>
        <mxCell id="i-EBkG4W8lG_7rL8BpoN-53" value="" style="group" parent="1" vertex="1" connectable="0">
          <mxGeometry x="390" y="640" width="81" height="170" as="geometry" />
        </mxCell>
        <mxCell id="i-EBkG4W8lG_7rL8BpoN-18" value="" style="rounded=1;whiteSpace=wrap;html=1;fillColor=none;strokeWidth=2;strokeColor=#FF8000;" parent="i-EBkG4W8lG_7rL8BpoN-53" vertex="1">
          <mxGeometry x="0.5" width="80" height="170" as="geometry" />
        </mxCell>
        <mxCell id="i-EBkG4W8lG_7rL8BpoN-19" value="&lt;b&gt;&lt;font color=&quot;#ff8000&quot; face=&quot;Rubik&quot;&gt;Zabbix Data Base&lt;br&gt;&lt;/font&gt;&lt;/b&gt;" style="text;html=1;strokeColor=none;fillColor=none;align=center;verticalAlign=middle;whiteSpace=wrap;rounded=0;" parent="i-EBkG4W8lG_7rL8BpoN-53" vertex="1">
          <mxGeometry y="61" width="81" height="30" as="geometry" />
        </mxCell>
        <mxCell id="i-EBkG4W8lG_7rL8BpoN-27" value="" style="shape=image;verticalLabelPosition=bottom;labelBackgroundColor=default;verticalAlign=top;aspect=fixed;imageAspect=0;image=https://cdn.icon-icons.com/icons2/2407/PNG/512/aws_icon_146074.png;" parent="1" vertex="1">
          <mxGeometry x="281.5" y="874.5" width="80" height="80" as="geometry" />
        </mxCell>
        <mxCell id="i-EBkG4W8lG_7rL8BpoN-30" value="&lt;font style=&quot;font-size: 20px;&quot; color=&quot;#ff8000&quot; face=&quot;Rubik&quot;&gt;&lt;b&gt;AWS SITE&lt;br&gt;&lt;/b&gt;&lt;/font&gt;" style="text;html=1;strokeColor=none;fillColor=none;align=center;verticalAlign=middle;whiteSpace=wrap;rounded=0;" parent="1" vertex="1">
          <mxGeometry x="354" y="894.5" width="170" height="30" as="geometry" />
        </mxCell>
        <mxCell id="i-EBkG4W8lG_7rL8BpoN-31" value="&lt;font color=&quot;#4d4d4d&quot; face=&quot;Rubik&quot;&gt;&lt;b style=&quot;font-size: 20px;&quot;&gt;SITE LOCAL&lt;br&gt;&lt;/b&gt;&lt;/font&gt;" style="text;html=1;strokeColor=none;fillColor=none;align=center;verticalAlign=middle;whiteSpace=wrap;rounded=0;" parent="1" vertex="1">
          <mxGeometry x="91.5" y="60" width="170" height="30" as="geometry" />
        </mxCell>
        <mxCell id="i-EBkG4W8lG_7rL8BpoN-44" value="" style="group" parent="1" vertex="1" connectable="0">
          <mxGeometry x="589" y="143" width="131" height="337" as="geometry" />
        </mxCell>
        <mxCell id="i-EBkG4W8lG_7rL8BpoN-34" value="" style="rounded=1;whiteSpace=wrap;html=1;fillColor=none;strokeWidth=2;strokeColor=#2E73B8;" parent="i-EBkG4W8lG_7rL8BpoN-44" vertex="1">
          <mxGeometry x="30" y="37" width="80" height="180" as="geometry" />
        </mxCell>
        <mxCell id="i-EBkG4W8lG_7rL8BpoN-35" value="&lt;font color=&quot;#2e2e2e&quot; face=&quot;Rubik&quot;&gt;&lt;b&gt;Grafana&lt;/b&gt;&lt;/font&gt;" style="text;html=1;strokeColor=none;fillColor=none;align=center;verticalAlign=middle;whiteSpace=wrap;rounded=0;" parent="i-EBkG4W8lG_7rL8BpoN-44" vertex="1">
          <mxGeometry x="40" y="67" width="60" height="30" as="geometry" />
        </mxCell>
        <mxCell id="i-EBkG4W8lG_7rL8BpoN-38" value="" style="shape=image;verticalLabelPosition=bottom;labelBackgroundColor=default;verticalAlign=top;aspect=fixed;imageAspect=0;image=https://docs.checkmk.com/latest/images/grafana_logo.png;" parent="i-EBkG4W8lG_7rL8BpoN-44" vertex="1">
          <mxGeometry width="67" height="67" as="geometry" />
        </mxCell>
        <mxCell id="i-EBkG4W8lG_7rL8BpoN-61" value="&lt;div&gt;&lt;font color=&quot;#009900&quot; face=&quot;Rubik&quot;&gt;&lt;b&gt;Network-02&lt;/b&gt;&lt;/font&gt;&lt;/div&gt;" style="text;html=1;strokeColor=none;fillColor=none;align=center;verticalAlign=middle;whiteSpace=wrap;rounded=0;" parent="i-EBkG4W8lG_7rL8BpoN-44" vertex="1">
          <mxGeometry x="-39" y="207" width="60" height="30" as="geometry" />
        </mxCell>
        <mxCell id="i-EBkG4W8lG_7rL8BpoN-45" value="" style="group" parent="1" vertex="1" connectable="0">
          <mxGeometry x="359" y="150" width="110" height="210" as="geometry" />
        </mxCell>
        <mxCell id="i-EBkG4W8lG_7rL8BpoN-6" value="" style="rounded=1;whiteSpace=wrap;html=1;fillColor=none;strokeWidth=2;strokeColor=#2E73B8;" parent="i-EBkG4W8lG_7rL8BpoN-45" vertex="1">
          <mxGeometry x="30" y="30" width="80" height="180" as="geometry" />
        </mxCell>
        <mxCell id="i-EBkG4W8lG_7rL8BpoN-7" value="&lt;font color=&quot;#2e2e2e&quot;&gt;&lt;b&gt;&lt;font face=&quot;Rubik&quot;&gt;Zabbix Front End&lt;br&gt;&lt;/font&gt;&lt;/b&gt;&lt;/font&gt;" style="text;html=1;strokeColor=none;fillColor=none;align=center;verticalAlign=middle;whiteSpace=wrap;rounded=0;" parent="i-EBkG4W8lG_7rL8BpoN-45" vertex="1">
          <mxGeometry x="40" y="60" width="60" height="30" as="geometry" />
        </mxCell>
        <mxCell id="i-EBkG4W8lG_7rL8BpoN-8" value="" style="shape=image;verticalLabelPosition=bottom;labelBackgroundColor=default;verticalAlign=top;aspect=fixed;imageAspect=0;image=https://cdn.icon-icons.com/icons2/2699/PNG/512/zabbix_logo_icon_167937.png;" parent="i-EBkG4W8lG_7rL8BpoN-45" vertex="1">
          <mxGeometry width="53" height="53" as="geometry" />
        </mxCell>
        <mxCell id="i-EBkG4W8lG_7rL8BpoN-41" value="" style="shape=image;verticalLabelPosition=bottom;labelBackgroundColor=default;verticalAlign=top;aspect=fixed;imageAspect=0;image=https://cdn-icons-png.flaticon.com/512/919/919853.png;" parent="1" vertex="1">
          <mxGeometry x="70" y="380" width="70" height="70" as="geometry" />
        </mxCell>
        <mxCell id="i-EBkG4W8lG_7rL8BpoN-50" value="" style="group" parent="1" vertex="1" connectable="0">
          <mxGeometry x="430" y="770" width="60" height="71" as="geometry" />
        </mxCell>
        <mxCell id="i-EBkG4W8lG_7rL8BpoN-20" value="" style="outlineConnect=0;dashed=0;verticalLabelPosition=bottom;verticalAlign=top;align=center;html=1;shape=mxgraph.aws3.rds;fillColor=#2E73B8;gradientColor=none;" parent="i-EBkG4W8lG_7rL8BpoN-50" vertex="1">
          <mxGeometry x="1" width="58" height="71" as="geometry" />
        </mxCell>
        <mxCell id="i-EBkG4W8lG_7rL8BpoN-21" value="&lt;font size=&quot;1&quot; color=&quot;#ffffff&quot; face=&quot;Rubik&quot;&gt;&lt;b style=&quot;font-size: 18px;&quot;&gt;RDS&lt;/b&gt;&lt;/font&gt;" style="text;html=1;strokeColor=none;fillColor=none;align=center;verticalAlign=middle;whiteSpace=wrap;rounded=0;" parent="i-EBkG4W8lG_7rL8BpoN-50" vertex="1">
          <mxGeometry y="20.5" width="60" height="30" as="geometry" />
        </mxCell>
        <mxCell id="i-EBkG4W8lG_7rL8BpoN-46" value="" style="group" parent="1" vertex="1" connectable="0">
          <mxGeometry x="149" y="150" width="110" height="210" as="geometry" />
        </mxCell>
        <mxCell id="i-EBkG4W8lG_7rL8BpoN-1" value="" style="rounded=1;whiteSpace=wrap;html=1;fillColor=none;strokeWidth=2;strokeColor=#2E73B8;" parent="i-EBkG4W8lG_7rL8BpoN-46" vertex="1">
          <mxGeometry x="30" y="30" width="80" height="180" as="geometry" />
        </mxCell>
        <mxCell id="i-EBkG4W8lG_7rL8BpoN-2" value="&lt;font color=&quot;#2e2e2e&quot;&gt;&lt;b&gt;&lt;font face=&quot;Rubik&quot;&gt;Zabbix Server&lt;br&gt;&lt;/font&gt;&lt;/b&gt;&lt;/font&gt;" style="text;html=1;strokeColor=none;fillColor=none;align=center;verticalAlign=middle;whiteSpace=wrap;rounded=0;" parent="i-EBkG4W8lG_7rL8BpoN-46" vertex="1">
          <mxGeometry x="40" y="60" width="60" height="30" as="geometry" />
        </mxCell>
        <mxCell id="i-EBkG4W8lG_7rL8BpoN-5" value="" style="shape=image;verticalLabelPosition=bottom;labelBackgroundColor=default;verticalAlign=top;aspect=fixed;imageAspect=0;image=https://cdn.icon-icons.com/icons2/2699/PNG/512/zabbix_logo_icon_167937.png;" parent="i-EBkG4W8lG_7rL8BpoN-46" vertex="1">
          <mxGeometry width="53" height="53" as="geometry" />
        </mxCell>
        <mxCell id="i-EBkG4W8lG_7rL8BpoN-55" style="edgeStyle=orthogonalEdgeStyle;rounded=0;orthogonalLoop=1;jettySize=auto;html=1;exitX=0.5;exitY=1;exitDx=0;exitDy=0;curved=1;startArrow=classic;startFill=1;" parent="1" source="i-EBkG4W8lG_7rL8BpoN-1" target="i-EBkG4W8lG_7rL8BpoN-18" edge="1">
          <mxGeometry relative="1" as="geometry" />
        </mxCell>
        <mxCell id="i-EBkG4W8lG_7rL8BpoN-56" style="edgeStyle=orthogonalEdgeStyle;rounded=0;orthogonalLoop=1;jettySize=auto;html=1;" parent="1" source="i-EBkG4W8lG_7rL8BpoN-6" target="i-EBkG4W8lG_7rL8BpoN-1" edge="1">
          <mxGeometry relative="1" as="geometry" />
        </mxCell>
        <mxCell id="i-EBkG4W8lG_7rL8BpoN-57" style="edgeStyle=orthogonalEdgeStyle;rounded=0;orthogonalLoop=1;jettySize=auto;html=1;entryX=1;entryY=0.5;entryDx=0;entryDy=0;" parent="1" source="i-EBkG4W8lG_7rL8BpoN-34" target="i-EBkG4W8lG_7rL8BpoN-6" edge="1">
          <mxGeometry relative="1" as="geometry" />
        </mxCell>
        <mxCell id="i-EBkG4W8lG_7rL8BpoN-60" value="&lt;font color=&quot;#6600cc&quot; face=&quot;Rubik&quot;&gt;&lt;b&gt;Network-01&lt;/b&gt;&lt;/font&gt;" style="text;html=1;strokeColor=none;fillColor=none;align=center;verticalAlign=middle;whiteSpace=wrap;rounded=0;" parent="1" vertex="1">
          <mxGeometry x="291.5" y="350" width="60" height="30" as="geometry" />
        </mxCell>
      </root>
    </mxGraphModel>
  </diagram>
</mxfile>
